<?xml version="1.0" encoding="UTF-8"?>
<!-- Generator: https://ezgif.com/png-to-svg -->
<svg version="1.1" xmlns="http://www.w3.org/2000/svg" width="512" height="512">
<path d="M0 0 C1.98 1.31 1.98 1.31 3.83 3.04 C4.51 3.68 5.2 4.32 5.91 4.97 C6.6 5.64 7.29 6.31 8 7 C8.65 7.63 9.3 8.26 9.98 8.9 C12 10.89 14 12.89 16 14.9 C16.72 15.62 17.44 16.35 18.19 17.09 C20.46 19.37 22.73 21.65 25 23.94 C26.55 25.5 28.11 27.05 29.66 28.61 C33.44 32.4 37.22 36.2 41 40 C45.54 37.88 48.29 34.73 51.68 31.09 C54.63 28.43 57.18 27.25 61.11 26.71 C68.87 27.1 72.78 31.69 78 37 C79.14 38.08 80.28 39.16 81.42 40.24 C82.59 41.37 83.77 42.5 84.94 43.62 C85.49 44.15 86.05 44.68 86.62 45.22 C91.34 49.88 93.91 54.11 94.12 60.94 C93.21 66.17 89.65 69.39 86 73 C85.48 73.53 84.96 74.06 84.43 74.61 C83.3 75.76 82.15 76.88 81 78 C82.42 81.22 84.11 83.35 86.61 85.82 C87.35 86.55 88.08 87.29 88.84 88.04 C89.64 88.83 90.43 89.61 91.25 90.41 C92.07 91.22 92.89 92.04 93.73 92.87 C96.33 95.46 98.95 98.04 101.56 100.62 C104.18 103.21 106.8 105.81 109.41 108.4 C111.04 110.01 112.66 111.63 114.3 113.23 C115.03 113.96 115.77 114.69 116.52 115.44 C117.17 116.08 117.82 116.72 118.49 117.38 C121.59 120.7 121.46 123.97 121.41 128.34 C120.27 135.76 113.08 140.97 108 146 C108.84 147.71 108.84 147.71 109.69 149.45 C120.4 171.57 129.39 194.22 134.31 218.38 C134.46 219.1 134.61 219.82 134.76 220.56 C137.65 235.9 138.37 251.06 138.31 266.62 C138.31 267.6 138.31 268.57 138.31 269.57 C138.25 283.89 137.91 297.92 135 312 C134.8 312.98 134.6 313.97 134.4 314.98 C122.88 370.37 92.96 422.93 48 458 C47.02 458.79 46.03 459.58 45.02 460.39 C23.21 477.74 -1.58 491.16 -28 500 C-28.83 500.28 -29.67 500.56 -30.53 500.85 C-39.63 503.84 -48.8 506.33 -58.19 508.25 C-58.92 508.4 -59.66 508.55 -60.41 508.71 C-75.79 511.66 -91 512.38 -106.62 512.31 C-107.6 512.31 -108.57 512.31 -109.57 512.31 C-123.9 512.25 -137.92 511.89 -152 509 C-153.46 508.71 -153.46 508.71 -154.95 508.41 C-210.27 497.11 -263.04 466.82 -298 422 C-298.79 421.02 -299.58 420.03 -300.39 419.02 C-318.5 396.26 -331.79 370.54 -341 343 C-341.26 342.22 -341.52 341.43 -341.8 340.63 C-344.45 332.53 -346.47 324.34 -348.19 316 C-348.42 314.88 -348.42 314.88 -348.66 313.74 C-351.66 298.31 -352.38 283.05 -352.31 267.38 C-352.31 266.4 -352.31 265.43 -352.31 264.43 C-352.25 250.11 -351.91 236.08 -349 222 C-348.8 221.02 -348.6 220.03 -348.4 219.02 C-338.72 172.49 -315.88 123.42 -279.23 91.75 C-277.76 90.04 -277.76 90.04 -278.16 87.71 C-279.72 82.69 -283.76 79.38 -287.39 75.71 C-288.8 74.26 -290.16 72.79 -291.53 71.31 C-296.25 66.5 -299.51 63.47 -306.39 62.97 C-307.83 63 -307.83 63 -309.29 63.04 C-313.74 62.98 -317.18 61.12 -321 59 C-322.05 58.44 -323.1 57.89 -324.19 57.31 C-329.7 52.78 -333.15 46.87 -335 40 C-336.07 28.68 -334.89 20.63 -327.81 11.75 C-322.49 6.01 -315.93 2.41 -308.12 1.76 C-298.46 1.54 -291.35 3.08 -283.69 9.12 C-277.32 15.22 -275 21.37 -274.5 30.09 C-273.61 38.85 -269.09 44.21 -262.88 50.12 C-262.13 50.85 -262.13 50.85 -261.37 51.6 C-254.9 58.05 -254.9 58.05 -246.55 61.05 C-242.11 60.36 -238.9 59.13 -235 57 C-234.34 56.67 -233.69 56.34 -233.01 56.01 C-228.88 53.93 -224.94 51.62 -221.01 49.2 C-217.04 46.83 -212.9 44.76 -208.78 42.65 C-206.37 41.39 -204.28 40.29 -202.38 38.32 C-200.43 36.46 -198.92 36.52 -196.25 36.25 C-189.93 35.35 -184.07 33.56 -178 31.62 C-170.6 29.3 -163.24 27.21 -155.62 25.69 C-154.9 25.54 -154.18 25.39 -153.44 25.24 C-138.11 22.34 -122.94 21.63 -107.38 21.69 C-106.41 21.69 -105.44 21.69 -104.44 21.69 C-85.68 21.74 -67.8 23.19 -49.58 27.82 C-44.72 29.08 -44.72 29.08 -40 28 C-37.91 26.15 -35.99 24.29 -34.06 22.29 C-33.5 21.71 -32.94 21.14 -32.36 20.56 C-30.57 18.73 -28.78 16.9 -27 15.06 C-25.22 13.23 -23.43 11.4 -21.64 9.58 C-20.53 8.45 -19.42 7.31 -18.31 6.17 C-12.66 0.4 -8.03 -1.42 0 0 Z " fill="#54469B" transform="translate(363,0)"/>
<path d="M0 0 C5.37 4.23 8.63 9.05 10.78 15.53 C10.98 17.89 11.15 20.25 11.28 22.61 C12.18 31.38 16.69 36.74 22.91 42.65 C23.65 43.38 23.65 43.38 24.41 44.12 C30.88 50.58 30.88 50.58 39.23 53.58 C43.67 52.88 46.88 51.66 50.78 49.53 C51.44 49.2 52.09 48.87 52.77 48.53 C56.9 46.46 60.84 44.15 64.77 41.73 C68.74 39.36 72.88 37.28 77 35.18 C79.41 33.92 81.52 32.79 83.46 30.85 C85.49 28.82 87.9 28.82 90.65 28.45 C92.78 28.53 92.78 28.53 95.08 29.46 C97.77 30.52 100.29 31.15 103.12 31.71 C104.62 32.02 104.62 32.02 106.15 32.33 C108.24 32.75 110.32 33.17 112.41 33.58 C113.91 33.89 113.91 33.89 115.44 34.21 C116.34 34.39 117.25 34.57 118.18 34.76 C122.1 35.92 125.04 37.28 127.15 40.85 C127.5 41.77 127.86 42.7 128.22 43.65 C128.82 45.23 128.82 45.23 129.44 46.85 C129.88 48.06 130.33 49.28 130.78 50.53 C131.34 52 131.9 53.48 132.46 54.96 C133.03 56.48 133.59 58 134.16 59.53 C134.43 60.26 134.71 60.99 134.99 61.74 C136.32 65.46 136.98 67.76 135.78 71.53 C129.24 71.88 124.07 70.28 117.92 68.22 C116.84 67.87 116.84 67.87 115.74 67.52 C115.1 67.31 114.46 67.09 113.8 66.87 C110.37 66.29 107.76 66.92 104.82 68.75 C102.8 70.46 100.85 72.22 98.91 74.03 C98.21 74.6 97.5 75.16 96.78 75.75 C92.49 79.78 90.67 84.25 90.47 90.12 C91.09 103.26 104.06 112.64 113.01 121.03 C115.13 123.04 117.21 125.07 119.29 127.12 C123.59 131.33 127.92 135.52 132.3 139.64 C133.07 140.37 133.84 141.1 134.64 141.85 C136.82 143.56 138.04 144.28 140.78 144.53 C143.5 143.5 146.01 142.4 148.62 141.12 C149.37 140.77 150.13 140.41 150.91 140.04 C153.33 138.9 155.74 137.75 158.16 136.59 C161.32 135.07 164.5 133.56 167.68 132.06 C168.4 131.71 169.12 131.36 169.87 130.99 C174.63 128.75 178.43 127.36 183.66 129.18 C185.86 130.1 188 131.1 190.14 132.14 C190.94 132.51 191.73 132.88 192.54 133.26 C195.06 134.44 197.58 135.64 200.09 136.84 C202.6 138.03 205.1 139.21 207.61 140.39 C209.17 141.12 210.72 141.85 212.27 142.6 C217.33 144.98 222.44 146.87 227.78 148.53 C236.79 141.15 236.79 141.15 242.79 131.58 C242.97 129.08 242.97 129.08 242.66 126.81 C242.98 120.56 249.64 115.27 253.78 111.09 C254.4 110.44 255.01 109.79 255.65 109.12 C256.25 108.52 256.85 107.91 257.47 107.28 C258.01 106.73 258.55 106.17 259.11 105.6 C260.78 104.53 260.78 104.53 262.68 104.78 C265.06 105.62 266.22 106.57 268.01 108.33 C268.61 108.92 269.21 109.51 269.83 110.11 C270.47 110.75 271.11 111.39 271.77 112.05 C272.43 112.7 273.09 113.36 273.78 114.03 C275.17 115.42 276.57 116.81 277.96 118.2 C280.09 120.34 282.24 122.45 284.4 124.56 C285.75 125.91 287.11 127.26 288.46 128.61 C289.11 129.24 289.75 129.87 290.42 130.53 C291.01 131.12 291.6 131.72 292.2 132.34 C292.73 132.86 293.25 133.38 293.79 133.91 C294.78 135.53 294.78 135.53 294.52 137.62 C293.63 139.91 292.53 141.15 290.8 142.88 C290.19 143.48 289.59 144.09 288.96 144.71 C288.32 145.33 287.69 145.95 287.03 146.59 C286.41 147.21 285.79 147.84 285.15 148.48 C277.02 156.52 277.02 156.52 272.57 156.54 C271.86 156.43 271.14 156.33 270.41 156.21 C267.21 156.06 266.15 156.22 263.64 158.3 C261.91 160.31 260.3 162.34 258.78 164.53 C259.59 164.78 259.59 164.78 260.41 165.03 C266.27 166.91 271.79 169.22 277.35 171.84 C278.23 172.24 279.1 172.65 280.01 173.07 C282.79 174.37 285.57 175.67 288.34 176.96 C290.21 177.83 292.08 178.7 293.94 179.57 C295.74 180.41 297.55 181.25 299.35 182.09 C300.17 182.47 301 182.86 301.85 183.25 C303.42 183.99 304.99 184.73 306.55 185.47 C308.04 186.18 309.54 186.87 311.04 187.55 C311.75 187.88 312.45 188.21 313.18 188.55 C313.81 188.84 314.43 189.12 315.07 189.42 C317.27 190.84 318.37 192.32 319.78 194.53 C320.16 196.68 320.16 196.68 320.16 199.05 C320.16 199.95 320.17 200.85 320.18 201.78 C320.17 202.77 320.16 203.75 320.15 204.76 C320.16 205.8 320.16 206.84 320.16 207.92 C320.17 211.37 320.16 214.82 320.14 218.28 C320.14 220.69 320.14 223.1 320.15 225.52 C320.15 230.59 320.14 235.66 320.12 240.73 C320.09 247.17 320.09 253.62 320.1 260.07 C320.1 265.06 320.1 270.05 320.09 275.05 C320.08 277.42 320.08 279.79 320.08 282.16 C320.09 294.31 319.98 306.26 318.21 318.3 C317.75 321.86 317.59 324.12 319.1 327.42 C320.92 329.63 322.76 331.18 325.09 332.84 C338.28 343.2 343.92 357.02 349.01 372.56 C349.86 375.13 350.73 377.68 351.6 380.22 C352.15 381.87 352.7 383.51 353.25 385.16 C353.64 386.29 353.64 386.29 354.03 387.44 C355.38 391.61 356.06 395.09 355.78 399.53 C350.77 401.2 347.13 399.66 342.37 397.99 C341.56 397.72 340.75 397.44 339.91 397.16 C338.2 396.57 336.48 395.98 334.77 395.38 C332.19 394.48 329.6 393.6 327.01 392.72 C318.14 389.69 309.8 386.46 301.78 381.53 C300.86 380.98 299.94 380.42 298.99 379.86 C298.26 379.42 297.53 378.98 296.78 378.53 C296.33 379.24 295.88 379.96 295.42 380.7 C284.67 397.35 271.39 411.29 255.56 423.19 C254.42 424.05 253.29 424.91 252.16 425.78 C233.55 440.08 212.2 450.19 190.78 459.53 C189.88 459.94 188.98 460.36 188.05 460.79 C181.61 463.63 177.8 464.06 171.05 461.48 C167.72 460.1 164.44 458.64 161.16 457.15 C159.96 456.61 158.77 456.07 157.53 455.52 C121.28 439.05 85.96 416.93 63.56 383.14 C61.89 380.51 61.89 380.51 59.78 378.53 C59.56 379.23 59.34 379.93 59.12 380.65 C55.48 391.52 50.77 397.83 40.78 403.53 C39.75 404.15 38.72 404.76 37.66 405.4 C30.57 408.17 20.8 407.8 13.84 404.9 C12.46 404.16 11.11 403.37 9.78 402.53 C9.09 402.1 8.39 401.68 7.67 401.24 C0.49 396.4 -4.32 389.35 -6.75 381.04 C-8.41 372.19 -7.94 364.27 -3.22 356.53 C-2.6 355.5 -2.6 355.5 -1.97 354.45 C2.81 347.35 10.32 341.37 18.78 339.53 C20.01 339.47 21.25 339.41 22.52 339.34 C27.53 338.72 30.35 336.34 33.84 332.84 C34.71 331.98 34.71 331.98 35.59 331.09 C38.42 327.97 39.68 326.1 40.43 321.87 C40.16 318.3 39.56 315.02 38.78 311.53 C37.79 304.91 37.62 298.35 37.6 291.67 C37.6 290.62 37.59 289.58 37.58 288.5 C37.56 285.07 37.55 281.63 37.54 278.2 C37.54 277.02 37.53 275.85 37.53 274.63 C37.51 268.42 37.5 262.2 37.49 255.98 C37.47 249.56 37.44 243.14 37.4 236.72 C37.37 231.77 37.37 226.83 37.36 221.89 C37.36 219.52 37.35 217.15 37.33 214.78 C37.3 211.48 37.3 208.17 37.31 204.87 C37.3 203.89 37.29 202.91 37.27 201.9 C37.3 197.67 37.38 195.2 39.58 191.51 C41.55 189.73 43.1 188.54 45.5 187.46 C46.22 187.14 46.93 186.81 47.67 186.47 C48.43 186.14 49.2 185.8 49.98 185.46 C50.78 185.1 51.58 184.74 52.4 184.37 C54.94 183.22 57.48 182.09 60.03 180.96 C62.56 179.83 65.09 178.69 67.62 177.55 C69.19 176.85 70.76 176.14 72.34 175.44 C77.22 173.27 82.01 170.95 86.78 168.53 C82.57 163.94 78.3 159.4 73.99 154.91 C72.53 153.38 71.09 151.83 69.66 150.27 C59.85 139.13 59.85 139.13 46.29 134.56 C39.99 134.83 36.07 136.2 31.64 140.69 C31.01 141.42 30.37 142.15 29.72 142.9 C29.02 143.59 28.32 144.29 27.6 145 C25.02 147.75 22.97 149.97 22.5 153.8 C22.72 156.15 23.16 158.26 23.78 160.53 C23.95 161.2 24.11 161.87 24.28 162.56 C25.11 165.76 26.1 168.91 27.04 172.07 C27.76 175.42 27.76 177.3 26.78 180.53 C20.36 179.93 14.69 177.93 8.66 175.71 C7.19 175.2 7.19 175.2 5.7 174.67 C-3.51 171.32 -3.51 171.32 -7.22 167.53 C-8.55 164.45 -9.41 161.76 -10.22 158.53 C-10.39 157.87 -10.56 157.21 -10.73 156.53 C-11.31 154.24 -11.86 151.95 -12.41 149.65 C-12.68 148.56 -12.68 148.56 -12.95 147.44 C-13.47 145.14 -13.86 142.85 -14.22 140.53 C-14.38 139.65 -14.55 138.76 -14.72 137.85 C-15.05 134.75 -15.05 132.54 -14.22 129.53 C-11.44 126.21 -8.19 123.64 -4.81 120.95 C3.34 114.27 9.17 107.6 10.45 96.74 C10.7 85.37 8.15 77.08 0.45 68.72 C-0.51 67.73 -1.49 66.75 -2.47 65.78 C-2.94 65.3 -3.41 64.83 -3.9 64.35 C-10.01 58.44 -14.94 55.49 -23.53 55.6 C-27.96 55.48 -31.41 53.64 -35.22 51.53 C-36.27 50.97 -37.32 50.41 -38.41 49.84 C-43.92 45.3 -47.37 39.4 -49.22 32.53 C-50.29 21.21 -49.11 13.15 -42.03 4.28 C-30.88 -7.76 -13.47 -8.94 0 0 Z " fill="#F9C600" transform="translate(77.21875,7.47265625)"/>
<path d="M0 0 C5.37 4.23 8.63 9.05 10.78 15.53 C10.98 17.89 11.15 20.25 11.28 22.61 C12.18 31.38 16.69 36.74 22.91 42.65 C23.65 43.38 23.65 43.38 24.41 44.12 C30.88 50.58 30.88 50.58 39.23 53.58 C43.67 52.88 46.88 51.66 50.78 49.53 C51.44 49.2 52.09 48.87 52.77 48.53 C56.9 46.46 60.84 44.15 64.77 41.73 C68.74 39.36 72.88 37.28 77 35.18 C79.41 33.92 81.52 32.79 83.46 30.85 C85.49 28.82 87.9 28.82 90.65 28.45 C92.78 28.53 92.78 28.53 95.08 29.46 C97.77 30.52 100.29 31.15 103.12 31.71 C104.62 32.02 104.62 32.02 106.15 32.33 C108.24 32.75 110.32 33.17 112.41 33.58 C113.91 33.89 113.91 33.89 115.44 34.21 C116.34 34.39 117.25 34.57 118.18 34.76 C122.1 35.92 125.04 37.28 127.15 40.85 C127.5 41.77 127.86 42.7 128.22 43.65 C128.82 45.23 128.82 45.23 129.44 46.85 C129.88 48.06 130.33 49.28 130.78 50.53 C131.34 52 131.9 53.48 132.46 54.96 C133.03 56.48 133.59 58 134.16 59.53 C134.43 60.26 134.71 60.99 134.99 61.74 C136.32 65.46 136.98 67.76 135.78 71.53 C129.24 71.88 124.07 70.28 117.92 68.22 C116.84 67.87 116.84 67.87 115.74 67.52 C115.1 67.31 114.46 67.09 113.8 66.87 C110.37 66.29 107.76 66.92 104.82 68.75 C102.8 70.46 100.85 72.22 98.91 74.03 C98.21 74.6 97.5 75.16 96.78 75.75 C92.49 79.78 90.67 84.25 90.47 90.12 C91.09 103.26 104.06 112.64 113.01 121.03 C115.13 123.04 117.21 125.07 119.29 127.12 C123.59 131.33 127.92 135.52 132.3 139.64 C133.07 140.37 133.84 141.1 134.64 141.85 C136.82 143.56 138.04 144.28 140.78 144.53 C143.5 143.5 146.01 142.4 148.62 141.12 C149.37 140.77 150.13 140.41 150.91 140.04 C153.33 138.9 155.74 137.75 158.16 136.59 C161.32 135.07 164.5 133.56 167.68 132.06 C168.4 131.71 169.12 131.36 169.87 130.99 C174.63 128.75 178.43 127.36 183.66 129.18 C185.86 130.1 188 131.1 190.14 132.14 C190.94 132.51 191.73 132.88 192.54 133.26 C195.06 134.44 197.58 135.64 200.09 136.84 C202.6 138.03 205.1 139.21 207.61 140.39 C209.17 141.12 210.72 141.85 212.27 142.6 C217.33 144.98 222.44 146.87 227.78 148.53 C236.79 141.15 236.79 141.15 242.79 131.58 C242.97 129.08 242.97 129.08 242.66 126.81 C242.98 120.56 249.64 115.27 253.78 111.09 C254.4 110.44 255.01 109.79 255.65 109.12 C256.25 108.52 256.85 107.91 257.47 107.28 C258.01 106.73 258.55 106.17 259.11 105.6 C260.78 104.53 260.78 104.53 262.68 104.78 C265.06 105.62 266.22 106.57 268.01 108.33 C268.61 108.92 269.21 109.51 269.83 110.11 C270.47 110.75 271.11 111.39 271.77 112.05 C272.43 112.7 273.09 113.36 273.78 114.03 C275.17 115.42 276.57 116.81 277.96 118.2 C280.09 120.34 282.24 122.45 284.4 124.56 C285.75 125.91 287.11 127.26 288.46 128.61 C289.11 129.24 289.75 129.87 290.42 130.53 C291.01 131.12 291.6 131.72 292.2 132.34 C292.73 132.86 293.25 133.38 293.79 133.91 C294.78 135.53 294.78 135.53 294.52 137.62 C293.63 139.91 292.53 141.15 290.8 142.88 C290.19 143.48 289.59 144.09 288.96 144.71 C288.32 145.33 287.69 145.95 287.03 146.59 C286.41 147.21 285.79 147.84 285.15 148.48 C277.02 156.52 277.02 156.52 272.57 156.54 C271.86 156.43 271.14 156.33 270.41 156.21 C267.21 156.06 266.15 156.22 263.64 158.3 C261.91 160.31 260.3 162.34 258.78 164.53 C259.59 164.78 259.59 164.78 260.41 165.03 C266.27 166.91 271.79 169.22 277.35 171.84 C278.23 172.24 279.1 172.65 280.01 173.07 C282.79 174.37 285.57 175.67 288.34 176.96 C290.21 177.83 292.08 178.7 293.94 179.57 C295.74 180.41 297.55 181.25 299.35 182.09 C300.17 182.47 301 182.86 301.85 183.25 C303.42 183.99 304.99 184.73 306.55 185.47 C308.04 186.18 309.54 186.87 311.04 187.55 C311.75 187.88 312.45 188.21 313.18 188.55 C313.81 188.84 314.43 189.12 315.07 189.42 C317.27 190.84 318.37 192.32 319.78 194.53 C320.16 196.68 320.16 196.68 320.16 199.05 C320.16 199.95 320.17 200.85 320.18 201.78 C320.17 202.77 320.16 203.75 320.15 204.76 C320.16 205.8 320.16 206.84 320.16 207.92 C320.17 211.37 320.16 214.82 320.14 218.28 C320.14 220.69 320.14 223.1 320.15 225.52 C320.15 230.59 320.14 235.66 320.12 240.73 C320.09 247.17 320.09 253.62 320.1 260.07 C320.1 265.06 320.1 270.05 320.09 275.05 C320.08 277.42 320.08 279.79 320.08 282.16 C320.09 294.31 319.98 306.26 318.21 318.3 C317.75 321.86 317.59 324.12 319.1 327.42 C320.92 329.63 322.76 331.18 325.09 332.84 C338.28 343.2 343.92 357.02 349.01 372.56 C349.86 375.13 350.73 377.68 351.6 380.22 C352.15 381.87 352.7 383.51 353.25 385.16 C353.64 386.29 353.64 386.29 354.03 387.44 C355.38 391.61 356.06 395.09 355.78 399.53 C350.77 401.2 347.13 399.66 342.37 397.99 C341.56 397.72 340.75 397.44 339.91 397.16 C338.2 396.57 336.48 395.98 334.77 395.38 C332.19 394.48 329.6 393.6 327.01 392.72 C318.14 389.69 309.8 386.46 301.78 381.53 C300.86 380.98 299.94 380.42 298.99 379.86 C298.26 379.42 297.53 378.98 296.78 378.53 C296.33 379.24 295.88 379.96 295.42 380.7 C284.67 397.35 271.39 411.29 255.56 423.19 C254.42 424.05 253.29 424.91 252.16 425.78 C233.55 440.08 212.2 450.19 190.78 459.53 C189.88 459.94 188.98 460.36 188.05 460.79 C181.61 463.63 177.8 464.06 171.05 461.48 C167.72 460.1 164.44 458.64 161.16 457.15 C159.96 456.61 158.77 456.07 157.53 455.52 C121.28 439.05 85.96 416.93 63.56 383.14 C61.89 380.51 61.89 380.51 59.78 378.53 C59.56 379.23 59.34 379.93 59.12 380.65 C55.48 391.52 50.77 397.83 40.78 403.53 C39.75 404.15 38.72 404.76 37.66 405.4 C30.57 408.17 20.8 407.8 13.84 404.9 C12.46 404.16 11.11 403.37 9.78 402.53 C9.09 402.1 8.39 401.68 7.67 401.24 C0.49 396.4 -4.32 389.35 -6.75 381.04 C-8.41 372.19 -7.94 364.27 -3.22 356.53 C-2.6 355.5 -2.6 355.5 -1.97 354.45 C2.81 347.35 10.32 341.37 18.78 339.53 C20.01 339.47 21.25 339.41 22.52 339.34 C27.53 338.72 30.35 336.34 33.84 332.84 C34.71 331.98 34.71 331.98 35.59 331.09 C38.42 327.97 39.68 326.1 40.43 321.87 C40.16 318.3 39.56 315.02 38.78 311.53 C37.79 304.91 37.62 298.35 37.6 291.67 C37.6 290.62 37.59 289.58 37.58 288.5 C37.56 285.07 37.55 281.63 37.54 278.2 C37.54 277.02 37.53 275.85 37.53 274.63 C37.51 268.42 37.5 262.2 37.49 255.98 C37.47 249.56 37.44 243.14 37.4 236.72 C37.37 231.77 37.37 226.83 37.36 221.89 C37.36 219.52 37.35 217.15 37.33 214.78 C37.3 211.48 37.3 208.17 37.31 204.87 C37.3 203.89 37.29 202.91 37.27 201.9 C37.3 197.67 37.38 195.2 39.58 191.51 C41.55 189.73 43.1 188.54 45.5 187.46 C46.22 187.14 46.93 186.81 47.67 186.47 C48.43 186.14 49.2 185.8 49.98 185.46 C50.78 185.1 51.58 184.74 52.4 184.37 C54.94 183.22 57.48 182.09 60.03 180.96 C62.56 179.83 65.09 178.69 67.62 177.55 C69.19 176.85 70.76 176.14 72.34 175.44 C77.22 173.27 82.01 170.95 86.78 168.53 C82.57 163.94 78.3 159.4 73.99 154.91 C72.53 153.38 71.09 151.83 69.66 150.27 C59.85 139.13 59.85 139.13 46.29 134.56 C39.99 134.83 36.07 136.2 31.64 140.69 C31.01 141.42 30.37 142.15 29.72 142.9 C29.02 143.59 28.32 144.29 27.6 145 C25.02 147.75 22.97 149.97 22.5 153.8 C22.72 156.15 23.16 158.26 23.78 160.53 C23.95 161.2 24.11 161.87 24.28 162.56 C25.11 165.76 26.1 168.91 27.04 172.07 C27.76 175.42 27.76 177.3 26.78 180.53 C20.36 179.93 14.69 177.93 8.66 175.71 C7.19 175.2 7.19 175.2 5.7 174.67 C-3.51 171.32 -3.51 171.32 -7.22 167.53 C-8.55 164.45 -9.41 161.76 -10.22 158.53 C-10.39 157.87 -10.56 157.21 -10.73 156.53 C-11.31 154.24 -11.86 151.95 -12.41 149.65 C-12.68 148.56 -12.68 148.56 -12.95 147.44 C-13.47 145.14 -13.86 142.85 -14.22 140.53 C-14.38 139.65 -14.55 138.76 -14.72 137.85 C-15.05 134.75 -15.05 132.54 -14.22 129.53 C-11.44 126.21 -8.19 123.64 -4.81 120.95 C3.34 114.27 9.17 107.6 10.45 96.74 C10.7 85.37 8.15 77.08 0.45 68.72 C-0.51 67.73 -1.49 66.75 -2.47 65.78 C-2.94 65.3 -3.41 64.83 -3.9 64.35 C-10.01 58.44 -14.94 55.49 -23.53 55.6 C-27.96 55.48 -31.41 53.64 -35.22 51.53 C-36.27 50.97 -37.32 50.41 -38.41 49.84 C-43.92 45.3 -47.37 39.4 -49.22 32.53 C-50.29 21.21 -49.11 13.15 -42.03 4.28 C-30.88 -7.76 -13.47 -8.94 0 0 Z M168.37 157.68 C167.65 158.02 166.94 158.35 166.2 158.69 C164.66 159.42 163.12 160.14 161.58 160.88 C157.42 162.85 153.25 164.79 149.07 166.74 C148.22 167.14 147.36 167.54 146.48 167.95 C138.6 171.63 130.66 175.17 122.7 178.67 C110.07 184.23 97.52 189.91 85.03 195.78 C84.36 196.09 83.69 196.41 83 196.73 C71.67 201.11 71.67 201.11 61.78 207.53 C61.67 210.49 61.62 213.43 61.62 216.4 C61.62 217.33 61.61 218.26 61.61 219.22 C61.59 222.33 61.58 225.44 61.58 228.54 C61.57 230.71 61.57 232.88 61.56 235.05 C61.55 239.61 61.54 244.18 61.54 248.75 C61.54 254.54 61.51 260.34 61.48 266.13 C61.46 270.62 61.46 275.12 61.46 279.61 C61.45 281.74 61.45 283.87 61.43 286 C61.2 326.47 71.59 360.72 100.41 390.21 C101.19 390.98 101.97 391.74 102.78 392.53 C103.28 393.04 103.77 393.55 104.28 394.08 C108.35 398.26 112.59 401.93 117.28 405.4 C117.98 405.92 118.68 406.44 119.4 406.97 C133.24 417.09 148.48 424.86 163.78 432.53 C164.46 432.87 165.14 433.21 165.84 433.56 C172.65 436.93 177.3 438.17 184.78 436.53 C187.89 435.45 190.78 434.06 193.72 432.59 C194.54 432.19 195.35 431.79 196.19 431.38 C230.8 414.23 264.21 392.14 281.78 356.53 C282.21 355.67 282.64 354.81 283.08 353.93 C292.03 335.17 295.98 315.22 295.89 294.49 C295.89 293.07 295.89 293.07 295.9 291.62 C295.89 288.52 295.89 285.43 295.88 282.33 C295.88 280.17 295.88 278.01 295.87 275.85 C295.87 270.19 295.86 264.53 295.85 258.88 C295.84 253.09 295.84 247.3 295.83 241.52 C295.82 230.19 295.8 218.86 295.78 207.53 C283.17 201.18 283.17 201.18 270.41 195.12 C269.61 194.75 268.81 194.38 267.99 194 C265.44 192.82 262.89 191.64 260.34 190.46 C258.54 189.63 256.74 188.8 254.93 187.96 C242.37 182.16 229.79 176.4 217.18 170.7 C210.97 167.9 204.78 165.07 198.62 162.16 C197.51 161.64 196.4 161.12 195.26 160.58 C193.22 159.62 191.19 158.65 189.16 157.67 C187.82 157.05 187.82 157.05 186.46 156.41 C185.69 156.04 184.93 155.68 184.14 155.3 C178.19 153.35 173.78 155.07 168.37 157.68 Z " fill="#D78955" transform="translate(77.21875,7.47265625)"/>
<path d="M0 0 C1.98 1.31 1.98 1.31 3.83 3.04 C4.51 3.68 5.2 4.32 5.91 4.97 C6.6 5.64 7.29 6.31 8 7 C8.98 7.94 8.98 7.94 9.98 8.9 C12 10.89 14 12.89 16 14.9 C16.72 15.62 17.44 16.35 18.19 17.09 C20.46 19.37 22.73 21.65 25 23.94 C26.55 25.5 28.11 27.05 29.66 28.61 C33.44 32.4 37.22 36.2 41 40 C45.54 37.88 48.29 34.73 51.68 31.09 C54.63 28.43 57.18 27.25 61.11 26.71 C68.87 27.1 72.78 31.69 78 37 C79.14 38.08 80.28 39.16 81.42 40.24 C82.59 41.37 83.77 42.5 84.94 43.62 C85.49 44.15 86.05 44.68 86.62 45.22 C91.34 49.88 93.91 54.11 94.12 60.94 C93.21 66.17 89.65 69.39 86 73 C85.48 73.53 84.96 74.06 84.43 74.61 C83.3 75.76 82.15 76.88 81 78 C82.42 81.22 84.11 83.35 86.61 85.82 C87.35 86.55 88.08 87.29 88.84 88.04 C89.64 88.83 90.43 89.61 91.25 90.41 C92.07 91.22 92.89 92.04 93.73 92.87 C96.33 95.46 98.95 98.04 101.56 100.62 C104.18 103.21 106.8 105.81 109.41 108.4 C111.04 110.01 112.66 111.63 114.3 113.23 C115.03 113.96 115.77 114.69 116.52 115.44 C117.17 116.08 117.82 116.72 118.49 117.38 C121.59 120.7 121.46 123.97 121.41 128.34 C120.7 132.94 118.13 135.7 115 139 C114.45 139.6 113.89 140.19 113.32 140.8 C110.45 143.78 107.41 146.53 104.27 149.23 C100.03 152.92 96.06 156.83 92.11 160.83 C91.39 161.55 90.68 162.27 89.94 163.01 C87.69 165.27 85.44 167.54 83.19 169.81 C80.2 172.82 77.22 175.83 74.23 178.83 C73.55 179.52 72.87 180.21 72.17 180.92 C71.53 181.56 70.9 182.2 70.24 182.85 C69.69 183.42 69.13 183.98 68.56 184.55 C65.62 187.28 63.38 188.4 59.44 188.69 C54.96 188.49 52.95 187.57 49.71 184.5 C48.85 183.69 47.98 182.87 47.09 182.03 C46.06 181.02 45.03 180.01 44 179 C43.39 178.4 42.79 177.81 42.16 177.19 C37.14 172.25 32.16 167.25 27.19 162.25 C25.69 160.74 24.18 159.24 22.68 157.73 C19.33 154.37 15.98 151.01 12.63 147.64 C11.24 146.24 9.84 144.85 8.44 143.45 C6.03 141.03 3.65 138.59 1.27 136.14 C-1.19 133.62 -3.65 131.11 -6.12 128.6 C-7.42 127.28 -8.72 125.95 -10.01 124.61 C-11.88 122.68 -13.77 120.76 -15.66 118.85 C-16.24 118.25 -16.81 117.65 -17.41 117.03 C-19.2 115.18 -19.2 115.18 -22 113 C-25.38 113.44 -27 114.63 -29.38 117.02 C-29.99 117.63 -30.6 118.24 -31.23 118.87 C-31.86 119.51 -32.48 120.15 -33.12 120.81 C-33.76 121.44 -34.39 122.07 -35.04 122.72 C-39.51 127.24 -42.14 130.18 -42.15 136.74 C-42.68 143.11 -45.97 146.02 -50.56 150.12 C-51.27 150.8 -51.98 151.47 -52.72 152.16 C-54.46 153.79 -56.22 155.4 -58 157 C-64.16 155.09 -69.95 152.77 -75.76 149.99 C-77.39 149.22 -79.02 148.46 -80.65 147.69 C-83.18 146.5 -85.71 145.3 -88.23 144.1 C-90.7 142.93 -93.17 141.77 -95.64 140.61 C-96.39 140.25 -97.14 139.89 -97.91 139.51 C-102.7 137.29 -106.58 135.79 -111.83 137.65 C-113.95 138.56 -116 139.55 -118.07 140.57 C-119.62 141.31 -121.17 142.05 -122.72 142.79 C-125.15 143.96 -127.58 145.13 -130 146.31 C-132.35 147.46 -134.71 148.58 -137.07 149.7 C-138.15 150.24 -138.15 150.24 -139.25 150.79 C-144.34 153.18 -144.34 153.18 -147.44 152.33 C-150.28 150.85 -152.27 149.2 -154.59 147 C-155.47 146.18 -156.35 145.35 -157.25 144.5 C-161.22 140.68 -165.18 136.84 -169.12 132.98 C-171.19 130.96 -173.29 128.95 -175.4 126.97 C-195.84 107.78 -195.84 107.78 -196.36 97.67 C-196.17 91.35 -193.86 86.77 -189.34 82.41 C-188.55 81.74 -187.75 81.07 -186.94 80.38 C-186.17 79.63 -185.41 78.89 -184.62 78.12 C-179.1 73.03 -179.1 73.03 -174.91 72.91 C-173.95 73.27 -172.99 73.63 -172 74 C-170.81 74.32 -169.61 74.64 -168.38 74.97 C-165.84 75.7 -163.29 76.43 -160.75 77.16 C-157.04 77.99 -153.79 78.15 -150 78 C-151.31 71.47 -153.14 65.41 -155.5 59.19 C-155.81 58.36 -156.12 57.52 -156.43 56.67 C-158.7 49.42 -158.7 49.42 -163.85 44.42 C-169.19 42.37 -174.84 41.41 -180.44 40.31 C-181.55 40.09 -182.66 39.86 -183.81 39.63 C-186.54 39.08 -189.27 38.54 -192 38 C-192 37.34 -192 36.68 -192 36 C-167.24 27.97 -167.24 27.97 -155.44 25.62 C-154.73 25.48 -154.02 25.34 -153.29 25.19 C-138 22.35 -122.89 21.63 -107.38 21.69 C-106.41 21.69 -105.44 21.69 -104.44 21.69 C-85.68 21.74 -67.8 23.19 -49.58 27.82 C-44.72 29.08 -44.72 29.08 -40 28 C-37.91 26.15 -35.99 24.29 -34.06 22.29 C-33.5 21.71 -32.94 21.14 -32.36 20.56 C-30.57 18.73 -28.78 16.9 -27 15.06 C-25.22 13.23 -23.43 11.4 -21.64 9.58 C-20.53 8.45 -19.42 7.31 -18.31 6.17 C-12.66 0.4 -8.03 -1.42 0 0 Z " fill="#ABA5D5" transform="translate(363,0)"/>
<path d="M0 0 C0.97 0 1.94 0 2.94 0.01 C24.91 0.08 45.11 2.76 66.38 8.31 C61.59 14.09 56.41 19.36 51.06 24.62 C49.44 26.22 47.82 27.82 46.2 29.43 C45.49 30.12 44.78 30.82 44.05 31.54 C41.54 34.19 41.06 36.24 40.75 39.81 C40.89 44.32 41.76 46.33 44.85 49.59 C45.66 50.45 46.48 51.31 47.32 52.2 C48.34 53.24 49.36 54.28 50.38 55.31 C50.98 55.93 51.59 56.55 52.22 57.19 C57.26 62.3 62.34 67.37 67.44 72.44 C68.99 73.98 70.54 75.53 72.08 77.07 C75.84 80.82 79.61 84.57 83.38 88.31 C81.95 91.29 80.58 93.33 78.19 95.62 C77.57 96.23 76.96 96.83 76.32 97.45 C75.02 98.69 73.73 99.93 72.43 101.18 C71.81 101.78 71.2 102.38 70.56 103 C70 103.54 69.44 104.08 68.86 104.64 C65.87 108.01 65.23 110.62 65.22 115.05 C64.69 121.42 61.41 124.33 56.81 128.44 C56.1 129.11 55.39 129.78 54.66 130.47 C52.92 132.11 51.15 133.71 49.38 135.31 C43.21 133.4 37.43 131.09 31.61 128.3 C29.98 127.54 28.35 126.77 26.72 126.01 C24.19 124.81 21.67 123.61 19.14 122.41 C16.68 121.24 14.21 120.08 11.74 118.93 C10.99 118.56 10.24 118.2 9.47 117.83 C4.68 115.6 0.79 114.1 -4.45 115.96 C-6.57 116.87 -8.63 117.86 -10.69 118.88 C-12.24 119.62 -13.8 120.36 -15.35 121.1 C-17.78 122.27 -20.2 123.44 -22.62 124.63 C-24.97 125.77 -27.33 126.89 -29.69 128.01 C-30.77 128.55 -30.77 128.55 -31.88 129.1 C-36.96 131.49 -36.96 131.49 -40.07 130.64 C-42.91 129.16 -44.89 127.52 -47.22 125.32 C-48.09 124.49 -48.97 123.66 -49.87 122.81 C-53.85 118.99 -57.81 115.16 -61.75 111.3 C-63.82 109.27 -65.91 107.27 -68.03 105.28 C-88.46 86.1 -88.46 86.1 -88.99 75.98 C-88.79 69.66 -86.48 65.09 -81.96 60.73 C-81.17 60.05 -80.38 59.38 -79.56 58.69 C-78.8 57.94 -78.03 57.2 -77.24 56.44 C-71.72 51.34 -71.72 51.34 -67.53 51.22 C-66.57 51.58 -65.61 51.94 -64.62 52.31 C-62.83 52.79 -62.83 52.79 -61 53.29 C-58.46 54.01 -55.92 54.74 -53.38 55.47 C-49.66 56.3 -46.42 56.46 -42.62 56.31 C-43.94 49.78 -45.77 43.72 -48.12 37.5 C-48.43 36.67 -48.74 35.84 -49.06 34.98 C-51.33 27.74 -51.33 27.74 -56.47 22.73 C-61.81 20.68 -67.47 19.72 -73.06 18.62 C-74.73 18.29 -74.73 18.29 -76.44 17.94 C-79.16 17.39 -81.89 16.85 -84.62 16.31 C-84.62 15.65 -84.62 14.99 -84.62 14.31 C-59.86 6.28 -59.86 6.28 -48.06 3.94 C-47 3.72 -47 3.72 -45.91 3.5 C-30.63 0.66 -15.51 -0.06 0 0 Z " fill="#54469B" transform="translate(255.625,21.6875)"/>
<path d="M0 0 C5.37 4.23 8.63 9.05 10.78 15.53 C10.98 17.89 11.15 20.25 11.28 22.61 C12.18 31.38 16.69 36.74 22.91 42.65 C23.65 43.38 23.65 43.38 24.41 44.12 C30.88 50.58 30.88 50.58 39.23 53.58 C43.67 52.88 46.88 51.66 50.78 49.53 C51.44 49.2 52.09 48.87 52.77 48.53 C56.9 46.46 60.84 44.15 64.77 41.73 C68.74 39.36 72.88 37.28 77 35.18 C79.41 33.92 81.52 32.79 83.46 30.85 C85.49 28.82 87.9 28.82 90.65 28.45 C92.78 28.53 92.78 28.53 95.08 29.46 C97.77 30.52 100.29 31.15 103.12 31.71 C104.62 32.02 104.62 32.02 106.15 32.33 C108.24 32.75 110.32 33.17 112.41 33.58 C113.91 33.89 113.91 33.89 115.44 34.21 C116.34 34.39 117.25 34.57 118.18 34.76 C122.1 35.92 125.04 37.28 127.15 40.85 C127.5 41.77 127.86 42.7 128.22 43.65 C128.82 45.23 128.82 45.23 129.44 46.85 C129.88 48.06 130.33 49.28 130.78 50.53 C131.34 52 131.9 53.48 132.46 54.96 C133.03 56.48 133.59 58 134.16 59.53 C134.43 60.26 134.71 60.99 134.99 61.74 C136.32 65.46 136.98 67.76 135.78 71.53 C129.24 71.88 124.07 70.28 117.92 68.22 C112.36 66.37 112.36 66.37 106.78 67.53 C100.68 71.6 93.09 77.61 91.14 84.94 C90.68 89.82 91.17 94.61 91.66 99.47 C92.21 108.49 86.46 116.04 81.04 122.66 C75.21 129.04 67.93 132.81 59.78 135.53 C58.34 135.43 56.89 135.26 55.46 135.06 C47.43 134.25 40.51 133.7 33.8 138.77 C32.3 140.13 30.83 141.53 29.41 142.96 C28.72 143.65 28.03 144.34 27.32 145.05 C24.85 147.82 22.95 150.04 22.53 153.8 C22.74 156.14 23.17 158.26 23.78 160.53 C23.95 161.2 24.11 161.87 24.28 162.56 C25.11 165.76 26.1 168.91 27.04 172.07 C27.76 175.42 27.76 177.3 26.78 180.53 C20.36 179.93 14.69 177.93 8.66 175.71 C7.19 175.2 7.19 175.2 5.7 174.67 C-3.51 171.32 -3.51 171.32 -7.22 167.53 C-8.55 164.45 -9.41 161.76 -10.22 158.53 C-10.39 157.87 -10.56 157.21 -10.73 156.53 C-11.31 154.24 -11.86 151.95 -12.41 149.65 C-12.68 148.56 -12.68 148.56 -12.95 147.44 C-13.47 145.14 -13.86 142.85 -14.22 140.53 C-14.38 139.65 -14.55 138.76 -14.72 137.85 C-15.05 134.75 -15.05 132.54 -14.22 129.53 C-11.44 126.21 -8.19 123.64 -4.81 120.95 C3.34 114.27 9.17 107.6 10.45 96.74 C10.7 85.37 8.15 77.08 0.45 68.72 C-0.51 67.73 -1.49 66.75 -2.47 65.78 C-2.94 65.3 -3.41 64.83 -3.9 64.35 C-10.01 58.44 -14.94 55.49 -23.53 55.6 C-27.96 55.48 -31.41 53.64 -35.22 51.53 C-36.27 50.97 -37.32 50.41 -38.41 49.84 C-43.92 45.3 -47.37 39.4 -49.22 32.53 C-50.29 21.21 -49.11 13.15 -42.03 4.28 C-30.88 -7.76 -13.47 -8.94 0 0 Z " fill="#FC9607" transform="translate(77.21875,7.47265625)"/>
<path d="M0 0 C1.34 0.63 1.34 0.63 2.7 1.27 C3.67 1.72 4.64 2.17 5.65 2.64 C6.65 3.11 7.65 3.59 8.67 4.08 C9.7 4.56 10.72 5.04 11.77 5.53 C14.29 6.7 16.79 7.89 19.3 9.08 C19.3 9.74 19.3 10.4 19.3 11.08 C-3.28 21.53 -25.88 31.92 -48.54 42.19 C-55.33 45.27 -62.12 48.36 -68.91 51.44 C-71.1 52.44 -73.28 53.43 -75.47 54.42 C-76.8 55.03 -78.12 55.63 -79.45 56.23 C-80.61 56.76 -81.77 57.29 -82.97 57.83 C-84.56 58.56 -86.14 59.3 -87.7 60.08 C-87.68 61.14 -87.66 62.2 -87.63 63.28 C-87.01 100.53 -87.01 100.53 -98.7 116.08 C-99.44 118.14 -99.44 118.14 -99.7 120.08 C-98.04 121.75 -95.92 121.44 -93.64 121.64 C-92.26 121.77 -92.26 121.77 -90.85 121.9 C-90.14 121.96 -89.43 122.02 -88.7 122.08 C-88.69 123.57 -88.69 123.57 -88.67 125.08 C-88.23 164.91 -84.6 202.63 -57.7 234.08 C-57.26 234.6 -56.82 235.12 -56.36 235.66 C-50.11 242.94 -43.37 249.29 -35.7 255.08 C-34.67 255.87 -33.63 256.66 -32.56 257.47 C-23.71 264.07 -14.28 269.55 -4.67 274.96 C-2.32 276.3 -0.01 277.68 2.3 279.08 C-0.41 281.79 -2.46 281.83 -6.19 282.16 C-10.62 282.02 -14.15 280.22 -18.08 278.27 C-18.94 277.86 -19.8 277.45 -20.68 277.03 C-23.37 275.74 -26.04 274.42 -28.7 273.08 C-29.54 272.67 -30.37 272.26 -31.23 271.83 C-68.01 253.55 -101.81 226.03 -115.7 186.08 C-116.7 182.98 -117.59 179.85 -118.45 176.71 C-118.65 175.99 -118.85 175.27 -119.05 174.53 C-122.97 159.24 -123.05 143.68 -123.11 128 C-123.11 126.93 -123.12 125.86 -123.12 124.75 C-123.15 119.1 -123.17 113.45 -123.18 107.8 C-123.19 101.97 -123.24 96.14 -123.3 90.31 C-123.33 85.81 -123.34 81.31 -123.35 76.8 C-123.35 74.65 -123.37 72.5 -123.4 70.35 C-123.43 67.36 -123.43 64.36 -123.41 61.37 C-123.43 60.48 -123.45 59.6 -123.47 58.68 C-123.44 56.33 -123.35 54.34 -122.7 52.08 C-119.85 49.6 -119.85 49.6 -116.7 48.08 C-115.66 47.56 -114.62 47.04 -113.55 46.5 C-112.42 46 -111.29 45.49 -110.13 44.97 C-109.5 44.69 -108.87 44.41 -108.22 44.11 C-106.16 43.18 -104.08 42.26 -102.01 41.33 C-99.78 40.33 -97.55 39.32 -95.32 38.32 C-93.78 37.62 -92.23 36.93 -90.69 36.23 C-85.45 33.88 -80.22 31.5 -75.01 29.1 C-74.29 28.78 -73.58 28.45 -72.85 28.11 C-71.41 27.45 -69.98 26.79 -68.54 26.13 C-53.77 19.35 -38.94 12.7 -24.07 6.13 C-23.34 5.81 -22.61 5.48 -21.85 5.15 C-20.48 4.55 -19.12 3.94 -17.75 3.34 C-14.13 1.74 -14.13 1.74 -10.64 -0.11 C-6.96 -1.64 -3.71 -1.26 0 0 Z " fill="#E8B700" transform="translate(261.70068359375,162.91796875)"/>
<path d="M0 0 C3.11 1.95 5.51 4.32 8 7 C8.55 7.49 9.1 7.98 9.66 8.48 C11.33 10.38 11.76 11.48 12 14 C10.66 15.93 10.66 15.93 8.58 17.95 C7.81 18.72 7.04 19.48 6.24 20.27 C5.4 21.09 4.55 21.9 3.67 22.75 C2.81 23.59 1.95 24.44 1.07 25.32 C-1.69 28.04 -4.47 30.74 -7.25 33.44 C-10.01 36.14 -12.77 38.84 -15.52 41.55 C-17.24 43.23 -18.96 44.92 -20.69 46.59 C-21.47 47.36 -22.26 48.12 -23.06 48.92 C-23.75 49.59 -24.44 50.26 -25.15 50.95 C-28.2 54.33 -29.89 56.93 -30.38 61.5 C-29.76 67.23 -26.73 70.53 -22.74 74.5 C-21.87 75.37 -21.01 76.24 -20.11 77.14 C-19.15 78.09 -18.19 79.04 -17.24 79.99 C-16.22 81 -15.21 82.02 -14.2 83.03 C-11.46 85.77 -8.71 88.51 -5.96 91.24 C-3.09 94.1 -0.22 96.97 2.65 99.84 C8.09 105.27 13.53 110.7 18.98 116.12 C25.17 122.29 31.35 128.46 37.54 134.64 C49.74 146.82 61.94 158.99 74.15 171.16 C75.44 172.44 76.72 173.72 78 175 C76.23 176.79 74.46 178.59 72.69 180.38 C72.19 180.88 71.69 181.39 71.17 181.91 C67.47 185.64 64.79 188.3 59.44 188.69 C54.96 188.49 52.95 187.57 49.71 184.5 C48.85 183.69 47.98 182.87 47.09 182.03 C46.06 181.02 45.03 180.01 44 179 C43.39 178.4 42.79 177.81 42.16 177.19 C37.14 172.25 32.16 167.25 27.19 162.25 C25.69 160.74 24.18 159.24 22.68 157.73 C19.93 154.97 17.18 152.21 14.44 149.45 C11.63 146.63 8.82 143.81 6 141 C4.98 139.98 3.96 138.96 2.94 137.94 C2.4 137.4 1.85 136.85 1.29 136.29 C-5.45 129.55 -12.2 122.8 -18.94 116.06 C-19.73 115.27 -19.73 115.27 -20.53 114.47 C-21.81 113.19 -23.08 111.92 -24.36 110.64 C-27.34 107.66 -30.32 104.69 -33.31 101.72 C-36.71 98.33 -40.11 94.94 -43.5 91.55 C-45.3 89.76 -47.09 87.97 -48.89 86.19 C-51.48 83.6 -54.08 81.02 -56.67 78.43 C-57.47 77.63 -58.28 76.83 -59.11 76.01 C-59.85 75.26 -60.6 74.52 -61.36 73.75 C-62.02 73.1 -62.68 72.44 -63.35 71.77 C-66.24 68.67 -67.36 66.48 -67.56 62.31 C-67.63 61.5 -67.69 60.7 -67.75 59.86 C-65.47 51.19 -54.88 43.82 -48.67 37.71 C-45.2 34.27 -41.79 30.83 -38.61 27.12 C-34.1 21.87 -29.2 17.02 -24.31 12.12 C-23.37 11.17 -22.42 10.21 -21.47 9.25 C-20.57 8.35 -19.67 7.44 -18.74 6.51 C-17.92 5.69 -17.11 4.87 -16.27 4.03 C-11.39 -0.33 -6.4 -1.29 0 0 Z " fill="#978ECA" transform="translate(363,0)"/>
<path d="M0 0 C0.82 -0.01 1.65 -0.02 2.49 -0.03 C3.84 -0.02 3.84 -0.02 5.22 -0.02 C6.17 -0.03 7.12 -0.04 8.1 -0.04 C11.24 -0.06 14.39 -0.07 17.54 -0.07 C19.72 -0.07 21.9 -0.08 24.09 -0.09 C28.66 -0.1 33.24 -0.1 37.82 -0.1 C43.7 -0.1 49.57 -0.13 55.44 -0.16 C59.95 -0.19 64.46 -0.19 68.97 -0.19 C71.13 -0.19 73.3 -0.2 75.47 -0.22 C78.49 -0.24 81.52 -0.23 84.54 -0.22 C85.44 -0.23 86.34 -0.24 87.26 -0.25 C93.31 -0.19 93.31 -0.19 96.54 2.14 C97.95 4.27 97.95 4.27 97.89 6.72 C96.85 9.53 95.58 11.64 93.84 14.08 C93.19 15 92.55 15.92 91.88 16.87 C91.18 17.85 90.48 18.82 89.76 19.83 C89.04 20.85 88.32 21.87 87.58 22.91 C86.09 25.02 84.61 27.12 83.11 29.21 C79.93 33.7 76.78 38.2 73.63 42.7 C72.78 43.93 72.78 43.93 71.9 45.18 C68.72 49.72 65.56 54.27 62.42 58.84 C61.5 60.18 60.57 61.52 59.65 62.86 C57.69 65.7 55.77 68.54 53.92 71.44 C53.33 72.35 52.74 73.27 52.13 74.2 C51.65 74.98 51.17 75.75 50.68 76.54 C48.95 78.27 48.95 78.27 46.06 79.33 C42.95 79.27 42.95 79.27 40.38 77.27 C37.74 74.01 35.33 70.69 33.01 67.2 C32.04 65.77 31.07 64.34 30.09 62.9 C29.58 62.15 29.07 61.39 28.55 60.62 C25.78 56.56 22.96 52.54 20.13 48.52 C19.26 47.27 19.26 47.27 18.37 46 C17.17 44.29 15.97 42.58 14.77 40.88 C11.68 36.47 8.6 32.05 5.51 27.64 C4.41 26.07 3.3 24.49 2.2 22.92 C1.68 22.16 1.15 21.4 0.61 20.62 C-0.57 18.95 -1.8 17.3 -3.05 15.67 C-3.71 14.81 -4.36 13.95 -5.03 13.06 C-5.63 12.28 -6.23 11.51 -6.85 10.71 C-8.45 7.46 -8.11 5.68 -7.05 2.27 C-4.01 0.24 -3.42 0.02 0 0 Z " fill="#F4FAFC" transform="translate(211.05430603027344,214.73257446289063)"/>
<path d="M0 0 C1.65 -0.01 1.65 -0.01 3.34 -0.03 C4.54 -0.02 5.74 -0.01 6.97 -0.01 C8.24 -0.01 9.51 -0.02 10.82 -0.02 C14.3 -0.04 17.78 -0.03 21.25 -0.02 C24.9 -0.01 28.54 -0.02 32.18 -0.03 C38.3 -0.03 44.41 -0.02 50.53 -0.01 C57.6 0.01 64.66 0 71.73 -0.02 C77.8 -0.03 83.88 -0.03 89.95 -0.02 C93.57 -0.02 97.2 -0.02 100.82 -0.03 C104.86 -0.04 108.9 -0.02 112.95 -0.01 C114.74 -0.02 114.74 -0.02 116.58 -0.03 C117.68 -0.02 118.78 -0.01 119.92 0 C121.35 0 121.35 0 122.81 0 C127.01 0.6 129.66 2.67 132.77 5.44 C135.24 9.73 135.36 13.55 134.46 18.38 C132.45 22.27 129.51 24.77 125.46 26.38 C122.94 26.64 122.94 26.64 120.04 26.64 C118.94 26.65 117.84 26.66 116.7 26.66 C114.9 26.66 114.9 26.66 113.06 26.66 C111.79 26.66 110.52 26.67 109.21 26.67 C105.73 26.68 102.25 26.69 98.77 26.68 C95.86 26.68 92.95 26.69 90.04 26.69 C83.18 26.7 76.32 26.7 69.46 26.7 C62.39 26.69 55.31 26.7 48.24 26.72 C42.16 26.74 36.09 26.75 30.01 26.74 C26.38 26.74 22.75 26.75 19.13 26.76 C15.08 26.77 11.03 26.76 6.99 26.75 C5.79 26.76 4.59 26.77 3.35 26.78 C2.25 26.77 1.14 26.76 0.01 26.76 C-0.95 26.76 -1.91 26.76 -2.89 26.76 C-6.67 26.22 -9.44 24.68 -11.9 21.77 C-14.1 17.84 -15.31 14.99 -14.54 10.38 C-11.78 3.48 -7.68 0.01 0 0 Z " fill="#FAFCFE" transform="translate(195.5408935546875,312.6190490722656)"/>
<path d="M0 0 C2 1 2 1 2.73 3 C2.95 3.87 3.18 4.75 3.41 5.64 C3.67 6.62 3.94 7.6 4.21 8.61 C4.63 10.19 4.63 10.19 5.06 11.81 C9.57 30.12 9.57 30.12 19 46 C19.95 54.27 17.5 60.09 13 67 C7.24 73.89 -0.81 78.38 -9.72 79.45 C-17.35 79.67 -23.5 79.11 -30 75 C-31.04 74.36 -31.04 74.36 -32.11 73.71 C-39.29 68.87 -44.1 61.82 -46.53 53.52 C-48.19 44.67 -47.72 36.74 -43 29 C-42.59 28.31 -42.17 27.63 -41.75 26.92 C-37 19.86 -29.45 13.76 -21 12 C-20.27 12.02 -19.55 12.04 -18.8 12.06 C-13.23 12.07 -10.45 10.96 -6.38 7 C-4.18 4.72 -2.07 2.39 0 0 Z " fill="#F98702" transform="translate(117,335)"/>
<path d="M0 0 C5.62 4.67 10.79 9.67 15.93 14.86 C16.75 15.7 17.58 16.53 18.44 17.39 C21.06 20.03 23.69 22.67 26.31 25.31 C29.78 28.81 33.26 32.31 36.74 35.8 C37.54 36.61 38.34 37.42 39.16 38.25 C39.9 38.99 40.64 39.73 41.4 40.49 C42.05 41.15 42.69 41.8 43.36 42.48 C44.94 44.09 44.94 44.09 47 45 C47 45.66 47 46.32 47 47 C45.98 47.45 44.96 47.91 43.9 48.37 C40.05 50.08 36.19 51.79 32.33 53.51 C30.68 54.24 29.02 54.98 27.36 55.71 C25.75 56.43 24.14 57.14 22.53 57.85 C20.94 58.56 19.35 59.26 17.77 59.97 C14.17 61.56 10.6 63.18 7.06 64.9 C5.91 65.45 4.76 66.01 3.57 66.59 C2.58 67.08 1.59 67.57 0.57 68.08 C-2.33 69.12 -3.16 69.03 -6 68 C-7.66 66.71 -7.66 66.71 -9.3 65.06 C-9.92 64.44 -10.54 63.82 -11.18 63.19 C-11.84 62.52 -12.49 61.85 -13.17 61.16 C-13.85 60.47 -14.54 59.79 -15.24 59.08 C-16.68 57.64 -18.11 56.19 -19.55 54.73 C-21.75 52.5 -23.96 50.28 -26.18 48.06 C-27.57 46.65 -28.97 45.25 -30.36 43.84 C-31.02 43.17 -31.69 42.5 -32.38 41.81 C-32.98 41.2 -33.59 40.58 -34.22 39.94 C-34.76 39.4 -35.3 38.85 -35.85 38.29 C-37 37 -37 37 -37 36 C-36.17 35.78 -35.33 35.56 -34.47 35.34 C-27.04 33.24 -21.01 30.88 -15 26 C-14.06 25.25 -14.06 25.25 -13.11 24.48 C-6.08 18.19 -2.06 9.09 0 0 Z " fill="#C2BBDF" transform="translate(169,107)"/>
<path d="M0 0 C2.38 1.96 4.7 3.96 7 6 C7.78 6.69 8.57 7.38 9.38 8.1 C21.25 19.21 27.24 32.82 32.23 48.04 C33.07 50.6 33.94 53.15 34.82 55.7 C35.37 57.34 35.92 58.98 36.47 60.63 C36.73 61.38 36.98 62.14 37.25 62.91 C38.6 67.08 39.28 70.56 39 75 C33.99 76.67 30.35 75.14 25.59 73.46 C24.78 73.19 23.97 72.91 23.13 72.63 C21.42 72.04 19.7 71.45 17.99 70.85 C15.41 69.95 12.82 69.07 10.23 68.2 C-0.23 64.61 -10.16 60.84 -19 54 C-18.4 49.48 -16.51 45.95 -14.38 42 C-8.07 29.87 -3.13 16.35 -1.29 2.77 C-1 1 -1 1 0 0 Z " fill="#ABA5D5" transform="translate(394,332)"/>
<path d="M0 0 C2.37 0.84 3.53 1.79 5.32 3.55 C6.23 4.43 6.23 4.43 7.15 5.33 C8.11 6.28 8.11 6.28 9.09 7.26 C10.08 8.24 10.08 8.24 11.09 9.25 C12.49 10.63 13.88 12.02 15.27 13.42 C17.4 15.55 19.56 17.66 21.72 19.78 C23.07 21.12 24.42 22.47 25.77 23.82 C26.42 24.46 27.07 25.09 27.74 25.74 C28.33 26.34 28.91 26.94 29.52 27.55 C30.3 28.33 30.3 28.33 31.11 29.13 C32.1 30.74 32.1 30.74 31.84 32.84 C30.95 35.12 29.85 36.36 28.11 38.09 C27.51 38.7 26.9 39.3 26.28 39.92 C25.64 40.54 25 41.17 24.35 41.81 C23.73 42.43 23.1 43.05 22.46 43.7 C14.37 51.69 14.37 51.69 9.89 51.79 C9.17 51.69 8.46 51.59 7.72 51.49 C4.67 51.35 3.47 51.47 0.96 53.29 C-0.77 55.04 -2.34 56.85 -3.9 58.74 C-11.03 56.52 -17.7 53.69 -24.47 50.56 C-25.47 50.09 -26.48 49.63 -27.52 49.15 C-29.98 48.02 -32.44 46.88 -34.9 45.74 C-33.33 42.26 -31.36 40.19 -28.51 37.63 C-22.18 32.14 -22.18 32.14 -19.9 24.37 C-19.97 23.62 -20.03 22.87 -20.09 22.09 C-19.59 15.76 -13.14 10.58 -8.9 6.31 C-8.29 5.66 -7.67 5.01 -7.04 4.34 C-6.44 3.73 -5.83 3.12 -5.22 2.5 C-4.68 1.94 -4.14 1.39 -3.58 0.82 C-1.9 -0.26 -1.9 -0.26 0 0 Z " fill="#FCA414" transform="translate(339.9032440185547,112.25747680664063)"/>
<path d="M0 0 C2.24 0.02 2.24 0.02 5 1 C6.59 3.56 7.9 5.98 9.19 8.69 C12.96 15.99 16.42 19.57 24 23 C25.56 23.94 27.1 24.89 28.62 25.88 C29.74 26.58 30.85 27.28 32 28 C31.63 30.44 31.38 31.68 29.47 33.31 C28.82 33.68 28.17 34.05 27.5 34.44 C26.78 34.87 26.05 35.31 25.31 35.76 C23 37 23 37 20.79 37.83 C13.57 40.81 11.22 46.34 8.09 53.12 C7.75 53.86 7.4 54.6 7.04 55.36 C6.59 56.37 6.59 56.37 6.14 57.41 C5 59 5 59 2.97 59.79 C1 60 1 60 -0.55 59.01 C-2.17 56.76 -3.17 54.4 -4.25 51.86 C-8.07 43.24 -12.64 39.56 -21.27 35.88 C-25.21 34.18 -25.21 34.18 -27 33 C-28 30.26 -28 30.26 -28 28 C-26.89 27.3 -25.77 26.6 -24.62 25.88 C-23.89 25.4 -23.16 24.93 -22.41 24.45 C-20 23 -20 23 -17.59 21.93 C-8.3 17.49 -4.59 8.76 0 0 Z " fill="#F5FAFB" transform="translate(254,360)"/>
<path d="M0 0 C5.52 3.16 10.04 6.48 12.06 12.75 C12.87 19.88 12.99 26.61 9.06 32.75 C3.76 38.34 -0.84 41.7 -8.62 42.19 C-14.54 42.03 -19.2 40.29 -23.94 36.75 C-28.93 30.97 -31.27 25.7 -31.15 18.09 C-30.54 11.37 -26.66 6.27 -21.94 1.75 C-15.95 -2.67 -6.84 -2.73 0 0 Z " fill="#FDDE2F" transform="translate(135.9375,81.25)"/>
<path d="M0 0 C3.75 2.59 6.81 5.76 10 9 C11.14 10.08 12.28 11.16 13.42 12.24 C14.59 13.37 15.77 14.5 16.94 15.62 C17.49 16.15 18.05 16.68 18.62 17.22 C23.34 21.88 25.91 26.11 26.12 32.94 C25.2 38.18 21.66 41.38 18 45 C17.41 45.61 16.81 46.21 16.2 46.84 C14.82 48.24 13.41 49.62 12 51 C8.91 49.62 6.8 48.05 4.42 45.65 C3.74 44.97 3.06 44.29 2.36 43.59 C1.64 42.86 0.92 42.12 0.17 41.37 C-0.58 40.62 -1.33 39.86 -2.1 39.09 C-4.49 36.69 -6.87 34.28 -9.25 31.88 C-10.87 30.25 -12.49 28.62 -14.11 26.99 C-18.08 23 -22.04 19 -26 15 C-24.26 11.27 -22.1 8.8 -19.19 5.88 C-18.34 5.01 -17.48 4.14 -16.61 3.24 C-11.46 -1.19 -6.41 -2.2 0 0 Z " fill="#FDA614" transform="translate(431,28)"/>
<path d="M0 0 C0.69 0.69 1.38 1.38 2.09 2.09 C4.66 4.66 7.25 7.23 9.84 9.78 C12.34 12.26 14.84 14.75 17.34 17.23 C18.66 18.54 19.99 19.85 21.31 21.16 C23.23 23.05 25.14 24.95 27.05 26.86 C27.65 27.44 28.24 28.03 28.86 28.63 C30.28 30.05 31.64 31.52 33 33 C33 33.66 33 34.32 33 35 C29.43 36.71 25.84 38.39 22.25 40.06 C21.23 40.55 20.22 41.03 19.17 41.53 C18.19 41.99 17.21 42.44 16.2 42.91 C15.3 43.33 14.4 43.76 13.47 44.2 C10.66 45.11 9.74 44.98 7 44 C5.34 42.71 5.34 42.71 3.7 41.06 C3.08 40.44 2.46 39.82 1.82 39.19 C1.16 38.52 0.51 37.85 -0.17 37.16 C-0.85 36.47 -1.54 35.79 -2.24 35.08 C-3.68 33.64 -5.11 32.19 -6.55 30.73 C-8.75 28.5 -10.96 26.28 -13.18 24.06 C-14.57 22.65 -15.97 21.25 -17.36 19.84 C-18.36 18.84 -18.36 18.84 -19.38 17.81 C-19.98 17.2 -20.59 16.58 -21.22 15.94 C-21.76 15.4 -22.3 14.85 -22.85 14.29 C-24 13 -24 13 -24 12 C-22.75 11.67 -22.75 11.67 -21.47 11.34 C-13.17 9 -6.17 6.17 0 0 Z " fill="#ACA6D5" transform="translate(156,131)"/>
<path d="M0 0 C3.07 0.3 4.55 0.47 6.57 2.88 C7.23 4.1 7.23 4.1 7.9 5.34 C8.4 6.24 8.9 7.14 9.41 8.06 C9.92 9.01 10.42 9.96 10.94 10.94 C11.95 12.78 12.95 14.62 13.96 16.46 C14.46 17.38 14.95 18.3 15.46 19.24 C17.46 22.83 19.66 26.27 21.9 29.71 C23.17 32.35 23.29 34.11 23 37 C20.88 39.12 16.15 38.16 13.22 38.17 C12.34 38.17 11.46 38.17 10.55 38.18 C8.68 38.18 6.81 38.19 4.94 38.19 C2.08 38.19 -0.79 38.21 -3.65 38.22 C-5.47 38.23 -7.28 38.23 -9.09 38.23 C-9.95 38.24 -10.81 38.24 -11.7 38.25 C-17.77 38.23 -17.77 38.23 -20 36 C-19.62 32.41 -17.75 29.49 -16.02 26.39 C-15.41 25.3 -14.8 24.22 -14.18 23.1 C-13.54 21.98 -12.91 20.85 -12.25 19.69 C-11.63 18.57 -11.01 17.46 -10.37 16.31 C-7.18 10.63 -3.93 5.19 0 0 Z " fill="#F2F9FB" transform="translate(181,247)"/>
<path d="M0 0 C2.2 0.02 2.2 0.02 5 1 C6.98 3.35 8.36 5.99 9.81 8.69 C10.24 9.45 10.67 10.21 11.1 11 C11.98 12.56 12.85 14.13 13.72 15.71 C14.92 17.85 16.16 19.96 17.43 22.07 C17.8 22.69 18.17 23.31 18.55 23.96 C19.57 25.65 20.58 27.35 21.6 29.05 C23.02 32.04 23.41 33.74 23 37 C21.1 38.9 18.34 38.13 15.81 38.14 C14.51 38.14 14.51 38.14 13.19 38.13 C11.86 38.13 11.86 38.13 10.51 38.14 C8.64 38.14 6.76 38.13 4.89 38.13 C2.01 38.13 -0.86 38.13 -3.74 38.14 C-5.56 38.14 -7.37 38.13 -9.19 38.13 C-10.05 38.13 -10.92 38.14 -11.81 38.14 C-17.89 38.11 -17.89 38.11 -19 37 C-18.62 31.81 -17.35 28.23 -14.73 23.77 C-13.74 22.07 -13.74 22.07 -12.73 20.34 C-12.03 19.16 -11.33 17.99 -10.62 16.81 C-9.93 15.63 -9.24 14.44 -8.55 13.25 C-3.08 3.94 -3.08 3.94 0 0 Z " fill="#F2F9FB" transform="translate(327,247)"/>
<path d="M0 0 C2.38 1.96 4.7 3.96 7 6 C8.18 7.04 8.18 7.04 9.38 8.1 C19.66 17.72 30.51 33.3 31.12 47.9 C31.08 48.59 31.04 49.29 31 50 C17.29 47.64 5.86 41.42 -5 33 C-5.64 32.53 -6.28 32.06 -6.93 31.58 C-8 30 -8 30 -7.74 27.43 C-7.46 26.44 -7.17 25.46 -6.88 24.44 C-6.58 23.37 -6.28 22.3 -5.97 21.2 C-4.87 17.55 -3.75 13.91 -2.62 10.27 C-1.78 7.2 -1.4 4.16 -1 1 C-0.67 0.67 -0.34 0.34 0 0 Z " fill="#C1BADE" transform="translate(394,332)"/>
<path d="M0 0 C0 3 0 3 -0.18 5.13 C-0.57 12.11 0.93 17.28 5 23 C10.3 28.05 15.03 29.13 22.19 29.06 C23.46 29.05 24.73 29.04 26.04 29.04 C27.02 29.02 27.99 29.01 29 29 C25.9 34.52 22.12 38.15 16.69 41.38 C9.21 43.11 3.03 42.41 -3.73 38.7 C-8.37 35.23 -11.19 30.44 -13 25 C-13.79 17.15 -12.09 11.36 -7.06 5.19 C-4.93 2.7 -3 1.33 0 0 Z " fill="#FDD302" transform="translate(118,81)"/>
<path d="M0 0 C5.35 1.95 8.46 4.91 11 10 C11.57 14.71 11.46 18.12 9.25 22.38 C5.29 27 2.35 28.81 -3.81 29.31 C-8.19 29.26 -10.62 27.83 -14 25 C-17.52 21 -18.37 17.4 -18.28 12.06 C-17.64 7.33 -14.71 4.62 -11.25 1.62 C-7.25 -0.38 -4.39 -0.72 0 0 Z " fill="#FDDD2F" transform="translate(107,366)"/>
<path d="M0 0 C0.66 0.99 1.32 1.98 2 3 C7.5 9.8 13.78 15.87 20 22 C20.99 22.99 21.98 23.98 23 25 C20.69 27.31 18.38 29.62 16 32 C8.87 29.78 2.2 26.95 -4.56 23.81 C-5.57 23.35 -6.58 22.89 -7.62 22.41 C-10.08 21.28 -12.54 20.14 -15 19 C-13.73 16.2 -12.44 14.21 -10.21 12.09 C-9.68 11.57 -9.15 11.06 -8.61 10.53 C-8.06 10 -7.51 9.48 -6.94 8.94 C-2.65 5.05 -2.65 5.05 0 0 Z " fill="#F88703" transform="translate(320,139)"/>
<path d="M0 0 C0 4.91 -3.69 7.32 -7 10.69 C-7.65 11.39 -8.3 12.09 -8.96 12.81 C-13.8 17.74 -13.8 17.74 -17.16 18.47 C-21.14 18.5 -25.11 17.78 -29 17 C-26.02 13.72 -23.08 11.78 -19.14 9.77 C-18.03 9.19 -16.91 8.62 -15.76 8.03 C-14.6 7.44 -13.44 6.85 -12.25 6.25 C-11.08 5.65 -9.9 5.05 -8.69 4.43 C-5.8 2.94 -2.9 1.47 0 0 Z " fill="#5D4A94" transform="translate(156,42)"/>
<path d="M0 0 C0.66 0.33 1.32 0.66 2 1 C2.8 3.69 3.5 6.33 4.12 9.06 C4.31 9.82 4.49 10.58 4.68 11.36 C5.12 13.24 5.56 15.12 6 17 C1.66 16.23 -1.95 14.74 -6 13 C-8.78 12.31 -8.78 12.31 -11 12 C-7.49 7.82 -3.92 3.8 0 0 Z " fill="#FDA513" transform="translate(117,335)"/>
</svg>
